<svg width="24" height="24" viewBox="0 0 24 24" fill="none" xmlns="http://www.w3.org/2000/svg">
<path d="M12 15.75C13.6569 15.75 15 14.4069 15 12.75C15 11.0931 13.6569 9.75 12 9.75C10.3431 9.75 9 11.0931 9 12.75C9 14.4069 10.3431 15.75 12 15.75Z" stroke="#42DA6E" stroke-linecap="round" stroke-linejoin="round"/>
<path d="M7.49976 17.9998C8.02379 17.3013 8.70324 16.7343 9.48431 16.3438C10.2654 15.9533 11.1266 15.75 11.9999 15.75C12.8731 15.75 13.7344 15.9532 14.5155 16.3437C15.2966 16.7342 15.9761 17.3011 16.5001 17.9996" stroke="#42DA6E" stroke-linecap="round" stroke-linejoin="round"/>
<path d="M19.5 20.25V3.75C19.5 3.33579 19.1642 3 18.75 3L5.25 3C4.83579 3 4.5 3.33579 4.5 3.75L4.5 20.25C4.5 20.6642 4.83579 21 5.25 21H18.75C19.1642 21 19.5 20.6642 19.5 20.25Z" stroke="#42DA6E" stroke-linecap="round" stroke-linejoin="round"/>
<path d="M9 6H15" stroke="#42DA6E" stroke-linecap="round" stroke-linejoin="round"/>
</svg>
