<svg width="16" height="16" viewBox="0 0 16 16" fill="none" xmlns="http://www.w3.org/2000/svg">
<path d="M8 8L4.2 5.15C4.1379 5.10343 4.0875 5.04303 4.05279 4.97361C4.01807 4.90418 4 4.82762 4 4.75V2.5C4 2.36739 4.05268 2.24021 4.14645 2.14645C4.24021 2.05268 4.36739 2 4.5 2H11.5C11.6326 2 11.7598 2.05268 11.8536 2.14645C11.9473 2.24021 12 2.36739 12 2.5V4.72757C12 4.80488 11.9821 4.88113 11.9476 4.95034C11.9132 5.01955 11.8632 5.07983 11.8015 5.12644L8 8Z" stroke="#15161A" stroke-width="2" stroke-linecap="round" stroke-linejoin="round"/>
<path d="M8 8L4.2 10.85C4.1379 10.8966 4.0875 10.957 4.05279 11.0264C4.01807 11.0958 4 11.1724 4 11.25V13.5C4 13.6326 4.05268 13.7598 4.14645 13.8536C4.24021 13.9473 4.36739 14 4.5 14H11.5C11.6326 14 11.7598 13.9473 11.8536 13.8536C11.9473 13.7598 12 13.6326 12 13.5V11.2724C12 11.1951 11.9821 11.1189 11.9476 11.0497C11.9132 10.9805 11.8632 10.9202 11.8015 10.8736L8 8Z" stroke="#15161A" stroke-width="2" stroke-linecap="round" stroke-linejoin="round"/>
</svg>
