<svg width="24" height="24" viewBox="0 0 24 24" fill="none" xmlns="http://www.w3.org/2000/svg">
<path d="M8.73433 11.5156C8.15618 10.0735 8.09367 8.47599 8.55738 6.99314C9.02108 5.51028 9.98256 4.23301 11.2793 3.37721C12.576 2.52142 14.1285 2.1396 15.6742 2.2963C17.22 2.45299 18.6642 3.13859 19.7628 4.2372C20.8614 5.33582 21.547 6.78006 21.7037 8.3258C21.8604 9.87155 21.4786 11.424 20.6228 12.7207C19.767 14.0175 18.4897 14.9789 17.0069 15.4426C15.524 15.9063 13.9265 15.8438 12.4844 15.2657L12.4845 15.2655L11.25 16.5H9V18.75H6.75V21H3V17.25L8.7345 11.5155L8.73433 11.5156Z" stroke="#15161A" stroke-width="2" stroke-linecap="round" stroke-linejoin="round"/>
<path d="M16.875 7.5C17.0821 7.5 17.25 7.33211 17.25 7.125C17.25 6.91789 17.0821 6.75 16.875 6.75C16.6679 6.75 16.5 6.91789 16.5 7.125C16.5 7.33211 16.6679 7.5 16.875 7.5Z" stroke="#15161A" stroke-width="2" stroke-linecap="round" stroke-linejoin="round"/>
<path d="M16.875 8.25C17.4963 8.25 18 7.74632 18 7.125C18 6.50368 17.4963 6 16.875 6C16.2537 6 15.75 6.50368 15.75 7.125C15.75 7.74632 16.2537 8.25 16.875 8.25Z" fill="#15161A"/>
</svg>
