<svg width="33" height="33" viewBox="0 0 33 33" fill="none" xmlns="http://www.w3.org/2000/svg">
<path d="M16.5 17.1055C18.7091 17.1055 20.5 15.3146 20.5 13.1055C20.5 10.8963 18.7091 9.10547 16.5 9.10547C14.2909 9.10547 12.5 10.8963 12.5 13.1055C12.5 15.3146 14.2909 17.1055 16.5 17.1055Z" stroke="#42DA6E" stroke-width="2" stroke-linecap="round" stroke-linejoin="round" />
<path d="M26.5 13.1055C26.5 22.1055 16.5 29.1055 16.5 29.1055C16.5 29.1055 6.5 22.1055 6.5 13.1055C6.5 10.4533 7.55357 7.90976 9.42893 6.0344C11.3043 4.15904 13.8478 3.10547 16.5 3.10547C19.1522 3.10547 21.6957 4.15904 23.5711 6.0344C25.4464 7.90976 26.5 10.4533 26.5 13.1055V13.1055Z" stroke="#42DA6E" stroke-width="2" stroke-linecap="round" stroke-linejoin="round" />
</svg>
