<svg width="135" height="46" viewBox="0 0 135 46" fill="none" xmlns="http://www.w3.org/2000/svg">
<rect x="2.91394" y="0.0761719" width="132" height="36" rx="18" transform="rotate(4 2.91394 0.0761719)" fill="#F3FDF6"/>
<path d="M28.4448 17.51C28.3841 17.2601 28.2494 17.0344 28.0585 16.8622C27.8675 16.6901 27.6291 16.5795 27.3743 16.5449L22.7684 15.8973L21.3537 11.4537C21.2775 11.2081 21.1289 10.9914 20.9274 10.8317C20.7259 10.6721 20.4808 10.5771 20.2244 10.5591L20.2232 10.559C19.9671 10.5416 19.7117 10.6018 19.4904 10.7319C19.2691 10.8619 19.0922 11.0557 18.9828 11.2879L16.9361 15.5145L12.3122 15.4916C12.0551 15.4904 11.8036 15.5668 11.5905 15.7107C11.3775 15.8546 11.2127 16.0594 11.1178 16.2983C11.0183 16.5404 10.9941 16.8069 11.0482 17.063C11.1023 17.3191 11.2323 17.5529 11.4212 17.7341L14.753 20.9749L13.41 25.0446C13.3179 25.3186 13.3106 25.614 13.3892 25.8922C13.4678 26.1704 13.6285 26.4184 13.8504 26.6038C14.0645 26.7837 14.3278 26.895 14.6061 26.9232C14.8844 26.9514 15.1647 26.8951 15.4105 26.7618L19.2256 24.703C19.2307 24.6997 19.2357 24.6976 19.2463 24.7044L23.003 27.4695C23.2068 27.6208 23.4516 27.707 23.7053 27.7169C23.9589 27.7268 24.2097 27.6599 24.4247 27.5249C24.6471 27.3867 24.8226 27.1845 24.9283 26.9448C25.0339 26.7051 25.0647 26.4392 25.0166 26.1817L24.2141 21.5772L27.9446 18.8895C28.1568 18.7364 28.3181 18.5229 28.4073 18.2769C28.4966 18.0308 28.5096 17.7636 28.4448 17.51Z" fill="#42DA6E"/>
<path d="M52.3864 19.1843C52.3256 18.9344 52.191 18.7087 52 18.5366C51.809 18.3644 51.5706 18.2538 51.3158 18.2192L46.7099 17.5716L45.2952 13.128C45.219 12.8825 45.0704 12.6657 44.8689 12.5061C44.6674 12.3464 44.4224 12.2514 44.1659 12.2334L44.1647 12.2333C43.9086 12.2159 43.6532 12.2761 43.4319 12.4062C43.2106 12.5362 43.0337 12.73 42.9243 12.9622L40.8777 17.1889L36.2537 17.1659C35.9966 17.1648 35.7451 17.2411 35.5321 17.385C35.319 17.5289 35.1542 17.7337 35.0593 17.9726C34.9598 18.2148 34.9356 18.4812 34.9897 18.7373C35.0438 18.9934 35.1738 19.2273 35.3627 19.4084L38.6946 22.6492L37.3515 26.7189C37.2594 26.9929 37.2521 27.2884 37.3307 27.5666C37.4093 27.8448 37.57 28.0928 37.7919 28.2781C38.006 28.458 38.2694 28.5693 38.5476 28.5975C38.8259 28.6257 39.1062 28.5694 39.3521 28.4361L43.1671 26.3773C43.1722 26.374 43.1773 26.3719 43.1878 26.3787L46.9445 29.1439C47.1484 29.2951 47.3931 29.3813 47.6468 29.3912C47.9005 29.4011 48.1512 29.3342 48.3662 29.1992C48.5886 29.061 48.7642 28.8588 48.8698 28.6191C48.9754 28.3795 49.0062 28.1135 48.9582 27.856L48.1556 23.2515L51.8861 20.5639C52.0984 20.4107 52.2596 20.1972 52.3489 19.9512C52.4381 19.7051 52.4512 19.4379 52.3864 19.1843Z" fill="#42DA6E"/>
<path d="M76.3279 20.8581C76.2671 20.6083 76.1325 20.3825 75.9415 20.2104C75.7506 20.0382 75.5121 19.9276 75.2574 19.893L70.6514 19.2454L69.2368 14.8018C69.1606 14.5563 69.012 14.3395 68.8104 14.1799C68.6089 14.0203 68.3639 13.9252 68.1074 13.9073L68.1062 13.9072C67.8501 13.8897 67.5947 13.95 67.3734 14.08C67.1521 14.21 66.9752 14.4038 66.8658 14.636L64.8192 18.8627L60.1953 18.8398C59.9382 18.8386 59.6867 18.9149 59.4736 19.0588C59.2605 19.2027 59.0958 19.4075 59.0008 19.6465C58.9014 19.8886 58.8771 20.155 58.9312 20.4111C58.9854 20.6672 59.1153 20.9011 59.3042 21.0823L62.6361 24.3231L61.293 28.3927C61.2009 28.6667 61.1937 28.9622 61.2723 29.2404C61.3508 29.5186 61.5116 29.7666 61.7334 29.9519C61.9476 30.1318 62.2109 30.2431 62.4892 30.2713C62.7674 30.2995 63.0477 30.2433 63.2936 30.11L67.1086 28.0511C67.1137 28.0478 67.1188 28.0457 67.1293 28.0526L70.886 30.8177C71.0899 30.969 71.3347 31.0552 71.5883 31.065C71.842 31.0749 72.0927 31.008 72.3077 30.8731C72.5302 30.7348 72.7057 30.5326 72.8113 30.2929C72.9169 30.0533 72.9477 29.7873 72.8997 29.5299L72.0971 24.9253L75.8276 22.2377C76.0399 22.0846 76.2012 21.8711 76.2904 21.625C76.3796 21.3789 76.3927 21.1117 76.3279 20.8581Z" fill="#42DA6E"/>
<path d="M100.269 22.5324C100.209 22.2826 100.074 22.0569 99.8831 21.8847C99.6921 21.7125 99.4537 21.6019 99.1989 21.5673L94.593 20.9197L93.1783 16.4761C93.1021 16.2306 92.9535 16.0138 92.752 15.8542C92.5505 15.6946 92.3054 15.5996 92.049 15.5816L92.0478 15.5815C91.7917 15.564 91.5363 15.6243 91.315 15.7543C91.0937 15.8843 90.9168 16.0781 90.8074 16.3103L88.7607 20.537L84.1368 20.5141C83.8797 20.5129 83.6282 20.5892 83.4151 20.7331C83.202 20.8771 83.0373 21.0818 82.9424 21.3208C82.8429 21.5629 82.8187 21.8294 82.8728 22.0854C82.9269 22.3415 83.0569 22.5754 83.2458 22.7566L86.5776 25.9974L85.2346 30.0671C85.1424 30.3411 85.1352 30.6365 85.2138 30.9147C85.2924 31.1929 85.4531 31.4409 85.675 31.6262C85.8891 31.8061 86.1524 31.9174 86.4307 31.9456C86.709 31.9738 86.9893 31.9176 87.2351 31.7843L91.0501 29.7254C91.0553 29.7221 91.0603 29.72 91.0708 29.7269L94.8275 32.492C95.0314 32.6433 95.2762 32.7295 95.5298 32.7394C95.7835 32.7492 96.0343 32.6823 96.2493 32.5474C96.4717 32.4091 96.6472 32.2069 96.7528 31.9673C96.8585 31.7276 96.8893 31.4616 96.8412 31.2042L96.0386 26.5996L99.7691 23.912C99.9814 23.7589 100.143 23.5454 100.232 23.2993C100.321 23.0532 100.334 22.786 100.269 22.5324Z" fill="#42DA6E"/>
<path d="M124.211 24.2067C124.15 23.9569 124.016 23.7312 123.825 23.559C123.634 23.3869 123.395 23.2763 123.14 23.2416L118.534 22.5941L117.12 18.1504C117.044 17.9049 116.895 17.6881 116.693 17.5285C116.492 17.3689 116.247 17.2739 115.99 17.2559L115.989 17.2558C115.733 17.2384 115.478 17.2986 115.257 17.4286C115.035 17.5587 114.858 17.7525 114.749 17.9847L112.702 22.2113L108.078 22.1884C107.821 22.1872 107.57 22.2636 107.357 22.4075C107.144 22.5514 106.979 22.7562 106.884 22.9951C106.784 23.2372 106.76 23.5037 106.814 23.7598C106.868 24.0159 106.998 24.2497 107.187 24.4309L110.519 27.6717L109.176 31.7414C109.084 32.0154 109.077 32.3108 109.155 32.589C109.234 32.8672 109.395 33.1152 109.616 33.3005C109.831 33.4805 110.094 33.5918 110.372 33.6199C110.65 33.6481 110.931 33.5919 111.177 33.4586L114.992 31.3997C114.997 31.3964 115.002 31.3943 115.012 31.4012L118.769 34.1663C118.973 34.3176 119.218 34.4038 119.471 34.4137C119.725 34.4236 119.976 34.3566 120.191 34.2217C120.413 34.0834 120.589 33.8812 120.694 33.6416C120.8 33.4019 120.831 33.1359 120.783 32.8785L119.98 28.2739L123.711 25.5863C123.923 25.4332 124.084 25.2197 124.173 24.9736C124.263 24.7276 124.276 24.4603 124.211 24.2067Z" fill="#42DA6E"/>
</svg>
