<svg width="56" height="56" viewBox="0 0 56 56" fill="none" xmlns="http://www.w3.org/2000/svg">
<mask id="path-1-inside-1_1157_8200" fill="white">
<path d="M0 16C0 7.16344 7.16344 0 16 0H40C48.8366 0 56 7.16344 56 16V40C56 48.8366 48.8366 56 40 56H16C7.16344 56 0 48.8366 0 40V16Z"/>
</mask>
<path d="M0 16C0 7.16344 7.16344 0 16 0H40C48.8366 0 56 7.16344 56 16V40C56 48.8366 48.8366 56 40 56H16C7.16344 56 0 48.8366 0 40V16Z" fill="#42DA6E"/>
<path d="M28 18.25C26.0716 18.25 24.1866 18.8218 22.5832 19.8932C20.9798 20.9645 19.7301 22.4873 18.9922 24.2688C18.2542 26.0504 18.0611 28.0108 18.4373 29.9021C18.8136 31.7934 19.7422 33.5307 21.1057 34.8943C22.4693 36.2579 24.2066 37.1865 26.0979 37.5627C27.9892 37.9389 29.9496 37.7458 31.7312 37.0078C33.5127 36.2699 35.0355 35.0202 36.1068 33.4168C37.1782 31.8134 37.75 29.9284 37.75 28C37.747 25.4151 36.7188 22.9368 34.891 21.109C33.0632 19.2812 30.5849 18.253 28 18.25ZM32.6436 26.2927L27.1431 31.5427C27.0032 31.6758 26.8176 31.75 26.6245 31.75C26.4315 31.75 26.2458 31.6758 26.106 31.5427L23.3564 28.9177C23.2128 28.7801 23.1296 28.5911 23.1252 28.3923C23.1208 28.1934 23.1956 28.0009 23.333 27.8571C23.4704 27.7133 23.6593 27.6299 23.8581 27.6252C24.057 27.6206 24.2496 27.695 24.3936 27.8323L26.6245 29.9629L31.6064 25.2073C31.7504 25.07 31.943 24.9956 32.1419 25.0002C32.3407 25.0049 32.5296 25.0883 32.667 25.2321C32.8045 25.3759 32.8792 25.5684 32.8748 25.7673C32.8704 25.9661 32.7872 26.1551 32.6436 26.2927Z" fill="white"/>
<path d="M0 0H56H0ZM56 40C56 49.3888 48.3888 57 39 57H17C7.61116 57 0 49.3888 0 40C0 48.2843 7.16344 55 16 55H40C48.8366 55 56 48.2843 56 40ZM0 56V0V56ZM56 0V56V0Z" fill="#F3FDF6" mask="url(#path-1-inside-1_1157_8200)"/>
</svg>
