<svg width="20" height="20" viewBox="0 0 20 20" fill="none"
    xmlns="http://www.w3.org/2000/svg">
    <path d="M18.6848 7.61047C18.6068 7.36549 18.4567 7.14971 18.2542 6.99129C18.0517 6.83287 17.8061 6.73917 17.5495 6.72241L12.9096 6.39771L11.1884 2.0636C11.0953 1.82399 10.9319 1.61811 10.7198 1.47293C10.5076 1.32775 10.2566 1.25004 9.99948 1.25H9.99826C9.74159 1.25046 9.49102 1.32836 9.27933 1.47352C9.06763 1.61867 8.90467 1.82433 8.81174 2.0636L7.06491 6.42273L2.45066 6.72241C2.19409 6.73917 1.94853 6.83287 1.74601 6.99129C1.5435 7.14971 1.39344 7.36549 1.3154 7.61047C1.23308 7.85894 1.22748 8.12643 1.29933 8.37813C1.37118 8.62982 1.51715 8.85404 1.71823 9.02161L5.26804 12.0221L4.21213 16.1755C4.13935 16.4553 4.15273 16.7505 4.25053 17.0226C4.34832 17.2946 4.52597 17.5308 4.76023 17.7002C4.98639 17.8647 5.25684 17.9574 5.53639 17.9661C5.81594 17.9748 6.09164 17.8992 6.32761 17.749L9.98972 15.4291C9.9946 15.4254 9.99948 15.423 10.0105 15.4291L13.9509 17.9254C14.1648 18.0621 14.415 18.131 14.6687 18.1232C14.9225 18.1153 15.1679 18.0311 15.373 17.8815C15.5853 17.728 15.7463 17.5141 15.8349 17.2676C15.9236 17.0212 15.9357 16.7537 15.8698 16.5002L14.748 11.9629L18.282 9.02161C18.483 8.85404 18.629 8.62982 18.7009 8.37812C18.7727 8.12643 18.7671 7.85894 18.6848 7.61047Z" stroke="#42DA6E"/>
</svg>