<svg width="20" height="20" viewBox="0 0 20 20" fill="none" xmlns="http://www.w3.org/2000/svg">
<path d="M18.685 7.61023C18.607 7.36524 18.4569 7.14946 18.2544 6.99105C18.0519 6.83263 17.8063 6.73893 17.5498 6.72217L12.9099 6.39746L11.1887 2.06335C11.0955 1.82374 10.9322 1.61786 10.72 1.47268C10.5079 1.3275 10.2568 1.2498 9.99973 1.24976H9.99851C9.74183 1.25021 9.49126 1.32811 9.27957 1.47327C9.06788 1.61843 8.90491 1.82409 8.81198 2.06335L7.06516 6.42248L2.4509 6.72217C2.19433 6.73893 1.94877 6.83263 1.74626 6.99105C1.54374 7.14946 1.39368 7.36524 1.31565 7.61023C1.23333 7.85869 1.22773 8.12619 1.29958 8.37788C1.37143 8.62957 1.5174 8.8538 1.71848 9.02136L5.26828 12.0218L4.21237 16.1753C4.1396 16.4551 4.15298 16.7503 4.25077 17.0223C4.34857 17.2944 4.52622 17.5306 4.76047 17.7C4.98663 17.8645 5.25709 17.9572 5.53664 17.9659C5.81619 17.9746 6.09189 17.8989 6.32785 17.7488L9.98996 15.4288C9.99484 15.4252 9.99973 15.4227 10.0107 15.4288L13.9511 17.9252C14.1651 18.0618 14.4153 18.1308 14.669 18.1229C14.9227 18.1151 15.1682 18.0309 15.3733 17.8812C15.5855 17.7278 15.7465 17.5139 15.8352 17.2674C15.9238 17.021 15.936 16.7535 15.8701 16.5L14.7483 11.9626L18.2822 9.02136C18.4833 8.8538 18.6293 8.62957 18.7011 8.37788C18.773 8.12619 18.7674 7.85869 18.685 7.61023Z" fill="#AFB2BE"/>
</svg>
