<svg width="24" height="24" viewBox="0 0 24 24" fill="none" xmlns="http://www.w3.org/2000/svg">
<path d="M17.4731 18.416L21.4731 12.416C21.5553 12.2928 21.5991 12.1481 21.5991 12C21.5991 11.8519 21.5553 11.7072 21.4731 11.584L17.4731 5.58398C17.4046 5.48124 17.3119 5.39701 17.203 5.33874C17.0941 5.28048 16.9726 5.25 16.8491 5.25H2.25049L6.47316 11.5847C6.55529 11.7079 6.59911 11.8527 6.5991 12.0008C6.59909 12.1488 6.55526 12.2936 6.47312 12.4168L2.25049 18.75H16.8491C16.9726 18.75 17.0941 18.7195 17.203 18.6613C17.3119 18.603 17.4046 18.5188 17.4731 18.416Z" stroke="#AFB2BE" stroke-width="2" stroke-linecap="round" stroke-linejoin="round"/>
</svg>
