<svg width="24" height="24" viewBox="0 0 24 24" fill="none" xmlns="http://www.w3.org/2000/svg">
<path d="M8.25 12.6446L16.6797 20.0628C16.7773 20.1486 16.8954 20.2076 17.0226 20.234C17.1498 20.2605 17.2817 20.2534 17.4054 20.2135C17.529 20.1737 17.6402 20.1024 17.728 20.0066C17.8158 19.9108 17.8772 19.7939 17.9063 19.6673L21.4325 4.27983C21.463 4.14679 21.4566 4.00796 21.414 3.87828C21.3715 3.74861 21.2943 3.63302 21.1909 3.54396C21.0874 3.4549 20.9617 3.39576 20.8271 3.3729C20.6925 3.35004 20.5543 3.36433 20.4273 3.41424L3.12505 10.2115C2.97426 10.2708 2.8467 10.3773 2.76147 10.515C2.67624 10.6528 2.63791 10.8145 2.65223 10.9759C2.66654 11.1372 2.73273 11.2896 2.84088 11.4103C2.94903 11.5309 3.09334 11.6133 3.2522 11.645L8.25 12.6446Z" stroke="#15161A" stroke-linecap="round" stroke-linejoin="round"/>
<path d="M8.25 12.6446L21.0105 3.42871" stroke="#15161A" stroke-linecap="round" stroke-linejoin="round"/>
<path d="M12.46 16.3494L9.53033 19.2791C9.42544 19.384 9.2918 19.4554 9.14632 19.4843C9.00083 19.5133 8.85003 19.4984 8.71299 19.4416C8.57594 19.3849 8.45881 19.2888 8.3764 19.1654C8.29399 19.0421 8.25 18.8971 8.25 18.7487V12.6445" stroke="#15161A" stroke-linecap="round" stroke-linejoin="round"/>
</svg>
