<svg width="24" height="24" viewBox="0 0 24 24" fill="none" xmlns="http://www.w3.org/2000/svg">
<path d="M8.25 12.6436L16.6797 20.0618C16.7773 20.1476 16.8954 20.2066 17.0226 20.2331C17.1498 20.2595 17.2817 20.2524 17.4054 20.2126C17.529 20.1727 17.6402 20.1014 17.728 20.0056C17.8158 19.9099 17.8772 19.7929 17.9063 19.6663L21.4325 4.27886C21.463 4.14582 21.4566 4.00698 21.414 3.87731C21.3715 3.74763 21.2943 3.63204 21.1909 3.54298C21.0874 3.45392 20.9617 3.39478 20.8271 3.37192C20.6925 3.34906 20.5543 3.36336 20.4273 3.41326L3.12505 10.2106C2.97426 10.2698 2.8467 10.3763 2.76147 10.5141C2.67624 10.6518 2.63791 10.8135 2.65223 10.9749C2.66654 11.1363 2.73273 11.2887 2.84088 11.4093C2.94903 11.5299 3.09334 11.6123 3.2522 11.6441L8.25 12.6436Z" stroke="#AFB2BE" stroke-width="2" stroke-linecap="round" stroke-linejoin="round"/>
<path d="M8.25 12.6437L21.0105 3.42773" stroke="#AFB2BE" stroke-width="2" stroke-linecap="round" stroke-linejoin="round"/>
<path d="M12.46 16.3494L9.53033 19.2791C9.42544 19.384 9.2918 19.4554 9.14632 19.4843C9.00083 19.5133 8.85003 19.4984 8.71299 19.4416C8.57594 19.3849 8.45881 19.2888 8.3764 19.1654C8.29399 19.0421 8.25 18.8971 8.25 18.7487V12.6445" stroke="#AFB2BE" stroke-width="2" stroke-linecap="round" stroke-linejoin="round"/>
</svg>
