<svg width="56" height="56" viewBox="0 0 56 56" fill="none"
    xmlns="http://www.w3.org/2000/svg">
    <mask id="path-1-inside-1_941_1362" fill="white">
        <path d="M0 16C0 7.16344 7.16344 0 16 0H40C48.8366 0 56 7.16344 56 16V40C56 48.8366 48.8366 56 40 56H16C7.16344 56 0 48.8366 0 40V16Z"/>
    </mask>
    <path d="M0 16C0 7.16344 7.16344 0 16 0H40C48.8366 0 56 7.16344 56 16V40C56 48.8366 48.8366 56 40 56H16C7.16344 56 0 48.8366 0 40V16Z" fill="#ffa74d"/>
    <path d="M28 18.25C26.0716 18.25 24.1866 18.8218 22.5832 19.8932C20.9798 20.9645 19.7301 22.4873 18.9922 24.2688C18.2542 26.0504 18.0611 28.0108 18.4373 29.9021C18.8136 31.7934 19.7422 33.5307 21.1057 34.8943C22.4693 36.2579 24.2066 37.1865 26.0979 37.5627C27.9892 37.9389 29.9496 37.7458 31.7312 37.0078C33.5127 36.2699 35.0355 35.0202 36.1068 33.4168C37.1782 31.8134 37.75 29.9284 37.75 28C37.747 25.4151 36.7188 22.9368 34.891 21.109C33.0632 19.2812 30.5849 18.253 28 18.25ZM31.5303 30.4697C31.6 30.5393 31.6554 30.622 31.6932 30.713C31.731 30.804 31.7504 30.9016 31.7505 31.0002C31.7505 31.0987 31.7312 31.1963 31.6935 31.2874C31.6558 31.3784 31.6005 31.4612 31.5308 31.5308C31.4612 31.6005 31.3784 31.6558 31.2874 31.6935C31.1963 31.7312 31.0987 31.7505 31.0002 31.7505C30.9016 31.7504 30.804 31.731 30.713 31.6932C30.622 31.6554 30.5393 31.6 30.4697 31.5303L28 29.0605L25.5303 31.5303C25.3896 31.6707 25.1989 31.7495 25.0002 31.7494C24.8014 31.7492 24.6108 31.6702 24.4703 31.5297C24.3298 31.3892 24.2508 31.1986 24.2506 30.9998C24.2505 30.8011 24.3293 30.6104 24.4697 30.4697L26.9395 28L24.4697 25.5303C24.3293 25.3896 24.2505 25.1989 24.2506 25.0002C24.2508 24.8014 24.3298 24.6108 24.4703 24.4703C24.6108 24.3298 24.8014 24.2508 25.0002 24.2506C25.1989 24.2505 25.3896 24.3293 25.5303 24.4697L28 26.9395L30.4697 24.4697C30.6104 24.3293 30.8011 24.2505 30.9998 24.2506C31.1986 24.2508 31.3892 24.3298 31.5297 24.4703C31.6702 24.6108 31.7493 24.8014 31.7494 25.0002C31.7495 25.1989 31.6707 25.3896 31.5303 25.5303L29.0605 28L31.5303 30.4697Z" fill="white"/>
    <path d="M0 0H56H0ZM56 40C56 49.3888 48.3888 57 39 57H17C7.61116 57 0 49.3888 0 40C0 48.2843 7.16344 55 16 55H40C48.8366 55 56 48.2843 56 40ZM0 56V0V56ZM56 0V56V0Z" fill="#fffaf4" mask="url(#path-1-inside-1_941_1362)"/>
</svg>