<svg width="536" height="536" viewBox="0 0 536 536" fill="none" xmlns="http://www.w3.org/2000/svg">
<mask id="path-1-inside-1_738_27343" fill="white">
<path fill-rule="evenodd" clip-rule="evenodd" d="M512 0C525.255 0 536 10.7452 536 24V48V512C536 525.255 525.255 536 512 536H24C10.7452 536 0 525.255 0 512V72C0 58.7452 10.7452 48 24 48H312C325.255 48 336 37.2548 336 24V24C336 10.7452 346.745 0 360 0H512Z"/>
</mask>
<path fill-rule="evenodd" clip-rule="evenodd" d="M512 0C525.255 0 536 10.7452 536 24V48V512C536 525.255 525.255 536 512 536H24C10.7452 536 0 525.255 0 512V72C0 58.7452 10.7452 48 24 48H312C325.255 48 336 37.2548 336 24V24C336 10.7452 346.745 0 360 0H512Z" fill="#F7F8FA"/>
<path d="M532 24C532 12.9543 523.046 4 512 4V-4C527.464 -4 540 8.53603 540 24H532ZM532 48V24H540V48H532ZM532 512V48H540V512H532ZM512 532C523.046 532 532 523.046 532 512H540C540 527.464 527.464 540 512 540V532ZM24 532H512V540H24V532ZM4 512C4 523.046 12.9543 532 24 532V540C8.53604 540 -4 527.464 -4 512H4ZM4 72V512H-4V72H4ZM24 52C12.9543 52 4 60.9543 4 72H-4C-4 56.536 8.53604 44 24 44V52ZM312 52H24V44H312V52ZM360 4C348.954 4 340 12.9543 340 24H332C332 8.53603 344.536 -4 360 -4V4ZM512 4H360V-4H512V4ZM312 44C323.046 44 332 35.0457 332 24H340C340 39.464 327.464 52 312 52V44Z" fill="white" mask="url(#path-1-inside-1_738_27343)"/>
</svg>
