<svg width="536" height="536" viewBox="0 0 536 536" fill="none" xmlns="http://www.w3.org/2000/svg">
<mask id="path-1-inside-1_738_27397" fill="white">
<path fill-rule="evenodd" clip-rule="evenodd" d="M24 0C10.7452 0 0 10.7452 0 24V48V512C0 525.255 10.7452 536 24 536H512C525.255 536 536 525.255 536 512V72C536 58.7452 525.255 48 512 48H224C210.745 48 200 37.2548 200 24V24C200 10.7452 189.255 0 176 0H24Z"/>
</mask>
<path fill-rule="evenodd" clip-rule="evenodd" d="M24 0C10.7452 0 0 10.7452 0 24V48V512C0 525.255 10.7452 536 24 536H512C525.255 536 536 525.255 536 512V72C536 58.7452 525.255 48 512 48H224C210.745 48 200 37.2548 200 24V24C200 10.7452 189.255 0 176 0H24Z" fill="#F7F8FA"/>
<path d="M4 24C4 12.9543 12.9543 4 24 4V-4C8.53603 -4 -4 8.53603 -4 24H4ZM4 48V24H-4V48H4ZM4 512V48H-4V512H4ZM24 532C12.9543 532 4 523.046 4 512H-4C-4 527.464 8.53604 540 24 540V532ZM512 532H24V540H512V532ZM532 512C532 523.046 523.046 532 512 532V540C527.464 540 540 527.464 540 512H532ZM532 72V512H540V72H532ZM512 52C523.046 52 532 60.9543 532 72H540C540 56.536 527.464 44 512 44V52ZM224 52H512V44H224V52ZM176 4C187.046 4 196 12.9543 196 24H204C204 8.53603 191.464 -4 176 -4V4ZM24 4H176V-4H24V4ZM224 44C212.954 44 204 35.0457 204 24H196C196 39.464 208.536 52 224 52V44Z" fill="white" mask="url(#path-1-inside-1_738_27397)"/>
</svg>
