<svg width="349" height="12" viewBox="0 0 349 12" fill="none" xmlns="http://www.w3.org/2000/svg">
<path d="M7.5858 6.02441C10.3568 6.03713 13.1147 5.96079 15.8857 5.91626C17.0045 5.89718 18.1363 5.87173 19.2551 5.83993C24.2116 5.71906 29.1681 5.59819 34.1246 5.47732C40.0438 5.331 45.976 5.17832 51.8952 5.01928C60.3642 4.79027 68.8202 4.55489 77.2762 4.32587C79.2146 4.27498 81.153 4.23681 83.0914 4.19228C88.0219 4.07777 92.9524 3.96326 97.8829 3.85511C102.813 3.74061 107.744 3.6261 112.674 3.51795C114.6 3.47342 116.538 3.41617 118.463 3.38436C126.334 3.26349 134.205 3.14262 142.062 3.02175C146.902 2.94541 151.741 2.87543 156.58 2.79909C158.48 2.76728 160.366 2.72912 162.266 2.71003C169.876 2.65914 177.473 2.59552 185.084 2.54463C192.59 2.48738 200.096 2.43648 207.603 2.37923C209.58 2.36651 211.571 2.37287 213.548 2.36651C218.452 2.36014 223.344 2.34742 228.248 2.34106C235.872 2.32834 243.482 2.31561 251.106 2.29653C253.59 2.29653 256.088 2.30289 258.586 2.30925C263.803 2.31561 269.019 2.32834 274.236 2.3347C274.665 2.3347 275.095 2.3347 275.524 2.3347C263.777 2.41104 252.042 2.48738 240.295 2.57644C235.39 2.61461 230.486 2.64641 225.581 2.68458C223.461 2.69731 221.353 2.70367 219.233 2.72912C212.143 2.81818 205.04 2.91996 197.95 3.00902C189.754 3.11717 181.545 3.22532 173.349 3.33346C171.97 3.35255 170.591 3.39072 169.212 3.42253C164.841 3.52431 160.483 3.61974 156.112 3.71516C147.253 3.91237 138.394 4.11594 129.534 4.31315C128.22 4.34495 126.919 4.38949 125.606 4.43402C121.286 4.58033 116.954 4.72665 112.622 4.87297C104.869 5.13379 97.1283 5.39461 89.3748 5.65544C87.2413 5.72542 85.1078 5.83356 82.9743 5.91626C78.0178 6.11983 73.0482 6.3234 68.0917 6.52698C61.7822 6.7878 55.4728 7.0359 49.1763 7.30945C40.3951 7.68478 31.6269 8.06011 22.8456 8.43545C20.7381 8.52451 18.6306 8.61357 16.5361 8.70263C12.7635 8.86167 9.00381 9.09705 5.23113 9.30062C4.82784 9.31971 4.4896 9.44694 4.4896 9.66323C4.4896 9.87952 4.82784 10.0131 5.23113 10.0258C6.61011 10.0576 7.98908 10.0831 9.35505 10.1149C9.18593 10.293 9.08186 10.4839 9.08186 10.6747C9.08186 11.3618 10.3047 12.0425 11.7748 11.9979C22.5334 11.6671 33.292 11.3109 44.0637 11.0628C53.4173 10.8465 62.7579 10.6302 72.1116 10.4075C82.4539 10.1658 92.7832 9.92406 103.126 9.68232C106.378 9.60598 109.63 9.52964 112.882 9.4533C113.819 9.43421 114.756 9.40241 115.706 9.38968C132.357 9.17339 149.009 8.96346 165.661 8.74716C174.559 8.63266 183.458 8.51815 192.356 8.40364C195.569 8.36547 198.782 8.3273 201.996 8.30185C219.025 8.17462 236.054 8.04103 253.096 7.9138C260.394 7.85654 267.692 7.79929 274.99 7.74204C281.222 7.69114 287.453 7.67206 293.685 7.55755C298.823 7.46213 303.975 7.3667 309.127 7.27128C311.69 7.22675 314.265 7.19494 316.828 7.11224C322.669 6.93412 328.51 6.74963 334.352 6.55878C334.352 6.55878 334.352 6.56515 334.339 6.57151C334.013 6.84505 333.922 7.18222 334.091 7.48757C334.26 7.78657 334.664 8.04103 335.21 8.20007C335.718 8.34639 336.511 8.42909 337.084 8.32094C338.358 8.07284 339.62 7.81837 340.882 7.56391C340.856 7.56391 340.83 7.57663 340.804 7.583L341.09 7.52574C341.194 7.50666 341.312 7.48121 341.416 7.46213C341.377 7.46849 341.338 7.48121 341.299 7.48757C341.975 7.34762 342.651 7.20766 343.315 7.06771C344.017 6.92139 344.72 6.78144 345.422 6.62876C346.19 6.46336 346.919 6.26615 347.66 6.0753C348.493 5.85901 349 5.38189 349 4.93022C349 4.68848 348.87 4.46582 348.636 4.26225C348.311 3.98871 347.673 3.7088 347.023 3.65154C346.372 3.59429 345.722 3.55612 345.058 3.51159C344.915 3.50523 344.772 3.49887 344.616 3.49887C344.174 3.49887 343.705 3.53067 343.289 3.5434C342.3 3.5752 341.312 3.65154 340.323 3.68335C339.516 3.71516 338.71 3.74061 337.89 3.76605C335.705 3.84239 333.532 3.91873 331.359 3.99507C330.8 4.01415 330.228 4.03324 329.668 4.05232C329.876 3.93781 330.02 3.81058 330.111 3.65791C330.215 3.5434 330.267 3.41617 330.28 3.28893C330.306 3.19987 330.332 3.11081 330.358 3.01539C330.358 2.89452 330.319 2.78637 330.241 2.67822C330.293 2.6655 330.358 2.65278 330.41 2.64005C330.813 2.51918 331.151 2.36014 331.385 2.16294C331.633 1.953 331.763 1.73035 331.763 1.48861C331.763 1.24687 331.633 1.02421 331.385 0.814281C331.242 0.725219 331.099 0.636157 330.956 0.540734C330.618 0.375333 330.215 0.260825 329.746 0.197209C328.901 0.0381694 328.029 0 327.131 0C326.403 0 325.674 0.0254463 324.946 0.0318079C323.905 0.0318079 322.851 0.044531 321.811 0.044531C320.328 0.0508926 318.845 0.0636157 317.362 0.0636157C313.446 0.0763389 309.53 0.0827005 305.614 0.0954236C301.933 0.108147 298.251 0.101785 294.569 0.101785C291.226 0.101785 287.87 0.101785 284.526 0.101785C271.179 0.133593 257.844 0.139955 244.497 0.209932C234.493 0.260825 224.489 0.311717 214.485 0.356248C210.009 0.381694 205.547 0.413502 201.072 0.458033C191.042 0.559819 181.025 0.667965 170.995 0.76975C168.133 0.801558 165.271 0.827005 162.422 0.858813C160.769 0.877897 159.104 0.916067 157.452 0.947875C147.539 1.13236 137.639 1.31685 127.726 1.50133C124.708 1.55859 121.677 1.61584 118.659 1.67309C116.967 1.7049 115.263 1.76216 113.572 1.80033C103.737 2.06115 93.889 2.31561 84.054 2.57644C78.9674 2.71003 73.8938 2.85635 68.8202 3.01539C60.1301 3.28257 51.4269 3.55612 42.7367 3.82331C35.2044 4.05232 27.672 4.25589 20.1397 4.47219C18.9429 4.50399 17.746 4.54216 16.5622 4.57397C14.6368 4.63123 12.6984 4.6694 10.7731 4.70756C9.05584 4.74573 7.33862 4.77118 5.62141 4.74573C5.45229 4.52944 5.00997 4.35132 4.51562 4.3704C3.40984 4.41493 2.30405 4.47219 1.19827 4.52944C0.664889 4.55489 0.196557 4.68848 0.0404462 4.95567C-0.128674 5.25466 0.248594 5.60455 0.873037 5.67452C1.35438 5.73178 1.83572 5.78903 2.31706 5.84629C2.78539 5.89718 3.29275 5.91626 3.76109 5.93535C5.02298 5.9926 6.29788 6.00533 7.57279 6.00533L7.5858 6.02441Z" fill="#42DA6E"/>
</svg>
