<svg width="120" height="120" viewBox="0 0 120 120" fill="none" xmlns="http://www.w3.org/2000/svg">
<rect x="0.5" y="0.5" width="119" height="119" rx="59.5" fill="#F4F7FE"/>
<path opacity="0.2" d="M53.4687 59.0312C52.3124 56.147 52.1873 52.952 53.1148 49.9863C54.0422 47.0206 55.9651 44.466 58.5586 42.7544C61.152 41.0429 64.2569 40.2792 67.3484 40.5926C70.4399 40.906 73.3284 42.2772 75.5256 44.4744C77.7228 46.6716 79.094 49.5601 79.4074 52.6516C79.7208 55.7431 78.9571 58.848 77.2456 61.4415C75.534 64.0349 72.9794 65.9579 70.0137 66.8853C67.048 67.8127 63.853 67.6877 60.9688 66.5313L60.969 66.5311L58.5 69H54V73.5H49.5V78H42V70.5L53.469 59.031L53.4687 59.0312Z" fill="#4E7CF6"/>
<path d="M53.4687 59.0312C52.3124 56.147 52.1873 52.952 53.1148 49.9863C54.0422 47.0206 55.9651 44.466 58.5586 42.7544C61.152 41.0429 64.2569 40.2792 67.3484 40.5926C70.4399 40.906 73.3284 42.2772 75.5256 44.4744C77.7228 46.6716 79.094 49.5601 79.4074 52.6516C79.7208 55.7431 78.9571 58.848 77.2456 61.4415C75.534 64.0349 72.9794 65.9579 70.0137 66.8853C67.048 67.8127 63.853 67.6877 60.9688 66.5313L60.969 66.5311L58.5 69H54V73.5H49.5V78H42V70.5L53.469 59.031L53.4687 59.0312Z" stroke="url(#paint0_linear_82_5642)" stroke-width="2" stroke-linecap="round" stroke-linejoin="round"/>
<path opacity="0.5" d="M69.75 51C70.1642 51 70.5 50.6642 70.5 50.25C70.5 49.8358 70.1642 49.5 69.75 49.5C69.3358 49.5 69 49.8358 69 50.25C69 50.6642 69.3358 51 69.75 51Z" stroke="black" stroke-width="2" stroke-linecap="round" stroke-linejoin="round"/>
<path d="M71.75 50.25C71.75 51.3546 70.8546 52.25 69.75 52.25C68.6454 52.25 67.75 51.3546 67.75 50.25C67.75 49.1454 68.6454 48.25 69.75 48.25C70.8546 48.25 71.75 49.1454 71.75 50.25Z" fill="url(#paint1_linear_82_5642)" stroke="white" stroke-width="0.5"/>
<rect x="0.5" y="0.5" width="119" height="119" rx="59.5" stroke="#9BB5FA" stroke-opacity="0.24"/>
<rect x="0.5" y="0.5" width="119" height="119" rx="59.5" stroke="url(#paint2_linear_82_5642)"/>
<defs>
<linearGradient id="paint0_linear_82_5642" x1="42" y1="77.9999" x2="86.0896" y2="66.9775" gradientUnits="userSpaceOnUse">
<stop stop-color="#4E7CF6"/>
<stop offset="1" stop-color="#9BB5FA"/>
</linearGradient>
<linearGradient id="paint1_linear_82_5642" x1="67.5" y1="52.5" x2="72.7941" y2="51.1765" gradientUnits="userSpaceOnUse">
<stop stop-color="#4E7CF6"/>
<stop offset="1" stop-color="#9BB5FA"/>
</linearGradient>
<linearGradient id="paint2_linear_82_5642" x1="60" y1="31.5" x2="60" y2="0" gradientUnits="userSpaceOnUse">
<stop stop-color="#9BB5FA" stop-opacity="0"/>
<stop offset="1" stop-color="#4E7CF6"/>
</linearGradient>
</defs>
</svg>
