<svg width="120" height="120" viewBox="0 0 120 120" fill="none" xmlns="http://www.w3.org/2000/svg">
<rect x="0.5" y="0.5" width="119" height="119" rx="59.5" fill="#F4F7FE"/>
<path opacity="0.2" d="M74.9989 52.5H44.9989C44.1705 52.5 43.4989 53.1716 43.4989 54V75C43.4989 75.8284 44.1705 76.5 44.9989 76.5H74.9989C75.8273 76.5 76.4989 75.8284 76.4989 75V54C76.4989 53.1716 75.8273 52.5 74.9989 52.5Z" fill="#4E7CF6"/>
<path d="M74.9989 52.5H44.9989C44.1705 52.5 43.4989 53.1716 43.4989 54V75C43.4989 75.8284 44.1705 76.5 44.9989 76.5H74.9989C75.8273 76.5 76.4989 75.8284 76.4989 75V54C76.4989 53.1716 75.8273 52.5 74.9989 52.5Z" stroke="url(#paint0_linear_82_4554)" stroke-width="2" stroke-linecap="round" stroke-linejoin="round"/>
<path d="M53.2489 52.5V45.75C53.2489 43.9598 53.9601 42.2429 55.2259 40.977C56.4918 39.7112 58.2087 39 59.9989 39C61.7891 39 63.506 39.7112 64.7719 40.977C66.0377 42.2429 66.7489 43.9598 66.7489 45.75V52.5" stroke="url(#paint1_linear_82_4554)" stroke-width="2" stroke-linecap="round" stroke-linejoin="round"/>
<rect x="0.5" y="0.5" width="119" height="119" rx="59.5" stroke="#9BB5FA" stroke-opacity="0.24"/>
<rect x="0.5" y="0.5" width="119" height="119" rx="59.5" stroke="url(#paint2_linear_82_4554)"/>
<defs>
<linearGradient id="paint0_linear_82_4554" x1="43.4989" y1="76.4999" x2="80.3897" y2="63.8187" gradientUnits="userSpaceOnUse">
<stop stop-color="#4E7CF6"/>
<stop offset="1" stop-color="#9BB5FA"/>
</linearGradient>
<linearGradient id="paint1_linear_82_4554" x1="53.2489" y1="52.5" x2="69.1313" y2="48.5294" gradientUnits="userSpaceOnUse">
<stop stop-color="#4E7CF6"/>
<stop offset="1" stop-color="#9BB5FA"/>
</linearGradient>
<linearGradient id="paint2_linear_82_4554" x1="60" y1="31.5" x2="60" y2="0" gradientUnits="userSpaceOnUse">
<stop stop-color="#9BB5FA" stop-opacity="0"/>
<stop offset="1" stop-color="#4E7CF6"/>
</linearGradient>
</defs>
</svg>
