<svg width="120" height="120" viewBox="0 0 120 120" fill="none" xmlns="http://www.w3.org/2000/svg">
<rect x="0.5" y="0.5" width="119" height="119" rx="59.5" fill="#F3FDF6"/>
<path opacity="0.2" d="M60 78C69.9411 78 78 69.9411 78 60C78 50.0589 69.9411 42 60 42C50.0589 42 42 50.0589 42 60C42 69.9411 50.0589 78 60 78Z" fill="#42DA6E"/>
<path d="M68.25 55.5L57.2499 66L51.75 60.75" stroke="url(#paint0_linear_82_6272)" stroke-width="2" stroke-linecap="round" stroke-linejoin="round"/>
<path d="M60 78C69.9411 78 78 69.9411 78 60C78 50.0589 69.9411 42 60 42C50.0589 42 42 50.0589 42 60C42 69.9411 50.0589 78 60 78Z" stroke="url(#paint1_linear_82_6272)" stroke-width="2" stroke-linecap="round" stroke-linejoin="round"/>
<rect x="0.5" y="0.5" width="119" height="119" rx="59.5" stroke="#95EAAD" stroke-opacity="0.24"/>
<rect x="0.5" y="0.5" width="119" height="119" rx="59.5" stroke="url(#paint2_linear_82_6272)"/>
<defs>
<linearGradient id="paint0_linear_82_6272" x1="51.75" y1="66" x2="69.6174" y2="58.9806" gradientUnits="userSpaceOnUse">
<stop stop-color="#42DA6E"/>
<stop offset="1" stop-color="#95EAAD"/>
</linearGradient>
<linearGradient id="paint1_linear_82_6272" x1="42" y1="77.9999" x2="84.3529" y2="67.4117" gradientUnits="userSpaceOnUse">
<stop stop-color="#42DA6E"/>
<stop offset="1" stop-color="#95EAAD"/>
</linearGradient>
<linearGradient id="paint2_linear_82_6272" x1="60" y1="31.5" x2="60" y2="0" gradientUnits="userSpaceOnUse">
<stop stop-color="#65E189" stop-opacity="0"/>
<stop offset="1" stop-color="#42DA6E"/>
</linearGradient>
</defs>
</svg>
