<svg width="194" height="192" viewBox="0 0 194 192" fill="none" xmlns="http://www.w3.org/2000/svg">
<path d="M193.2 96C193.2 110.257 190.087 123.801 184.495 135.97C169.343 169.038 135.95 192 97.2002 192C58.4499 192 25.0575 169.038 9.90506 135.97C4.31371 123.801 1.2002 110.257 1.2002 96C1.2002 42.9795 44.1797 0 97.2002 0C150.221 0 193.2 42.9795 193.2 96Z" fill="#F7F8FA"/>
<mask id="mask0_1658_36929" style="mask-type:alpha" maskUnits="userSpaceOnUse" x="0" y="0" width="192" height="192">
<path d="M192 96C192 110.257 188.886 123.801 183.295 135.97C168.143 169.038 134.75 192 96 192C57.2497 192 23.8573 169.038 8.70487 135.97C3.11351 123.801 0 110.257 0 96C0 42.9795 42.9795 0 96 0C149.021 0 192 42.9795 192 96Z" fill="#F7F8FA"/>
</mask>
<g mask="url(#mask0_1658_36929)">
<path d="M150.373 125.982L106.389 49.9824C105.333 48.1623 103.818 46.6515 101.996 45.6012C100.173 44.5509 98.1057 43.998 96.0018 43.998C93.898 43.998 91.8311 44.5509 90.0082 45.6012C88.1853 46.6515 86.6703 48.1623 85.6151 49.9824V49.9863L41.6308 125.982C40.5747 127.806 40.0177 129.876 40.0156 131.983C40.0136 134.091 40.5666 136.162 41.6191 137.988C42.6716 139.813 44.1864 141.33 46.0112 142.384C47.8359 143.439 49.9061 143.994 52.0136 143.994H139.99C142.098 143.994 144.168 143.439 145.993 142.384C147.817 141.33 149.332 139.813 150.385 137.988C151.437 136.162 151.99 134.091 151.988 131.983C151.986 129.876 151.429 127.806 150.373 125.982ZM91.9979 83.998C91.9979 82.9372 92.4194 81.9198 93.1695 81.1696C93.9197 80.4195 94.9371 79.998 95.9979 79.998C97.0588 79.998 98.0762 80.4195 98.8264 81.1696C99.5765 81.9198 99.9979 82.9372 99.9979 83.998V103.998C99.9979 105.059 99.5765 106.076 98.8264 106.826C98.0762 107.577 97.0588 107.998 95.9979 107.998C94.9371 107.998 93.9197 107.577 93.1695 106.826C92.4194 106.076 91.9979 105.059 91.9979 103.998V83.998ZM96.0009 127.999C94.8142 127.999 93.6541 127.648 92.6674 126.988C91.6808 126.329 90.9117 125.392 90.4576 124.296C90.0035 123.199 89.8846 121.993 90.1162 120.829C90.3477 119.665 90.9191 118.596 91.7582 117.757C92.5973 116.918 93.6664 116.346 94.8303 116.115C95.9942 115.883 97.2006 116.002 98.297 116.456C99.3933 116.91 100.33 117.679 100.99 118.666C101.649 119.653 102.001 120.813 102.001 121.999C102.001 123.591 101.369 125.117 100.243 126.242C99.1182 127.367 97.5921 127.999 96.0009 127.999Z" fill="#15161A"/>
<path d="M150.373 125.982L106.389 49.9824C105.333 48.1623 103.818 46.6515 101.996 45.6012C100.173 44.5509 98.1057 43.998 96.0018 43.998C93.898 43.998 91.8311 44.5509 90.0082 45.6012C88.1853 46.6515 86.6703 48.1623 85.6151 49.9824V49.9863L41.6308 125.982C40.5747 127.806 40.0177 129.876 40.0156 131.983C40.0136 134.091 40.5666 136.162 41.6191 137.988C42.6716 139.813 44.1864 141.33 46.0112 142.384C47.8359 143.439 49.9061 143.994 52.0136 143.994H139.99C142.098 143.994 144.168 143.439 145.993 142.384C147.817 141.33 149.332 139.813 150.385 137.988C151.437 136.162 151.99 134.091 151.988 131.983C151.986 129.876 151.429 127.806 150.373 125.982ZM91.9979 83.998C91.9979 82.9372 92.4194 81.9198 93.1695 81.1696C93.9197 80.4195 94.9371 79.998 95.9979 79.998C97.0588 79.998 98.0762 80.4195 98.8264 81.1696C99.5765 81.9198 99.9979 82.9372 99.9979 83.998V103.998C99.9979 105.059 99.5765 106.076 98.8264 106.826C98.0762 107.577 97.0588 107.998 95.9979 107.998C94.9371 107.998 93.9197 107.577 93.1695 106.826C92.4194 106.076 91.9979 105.059 91.9979 103.998V83.998ZM96.0009 127.999C94.8142 127.999 93.6541 127.648 92.6674 126.988C91.6808 126.329 90.9117 125.392 90.4576 124.296C90.0035 123.199 89.8846 121.993 90.1162 120.829C90.3477 119.665 90.9191 118.596 91.7582 117.757C92.5973 116.918 93.6664 116.346 94.8303 116.115C95.9942 115.883 97.2006 116.002 98.297 116.456C99.3933 116.91 100.33 117.679 100.99 118.666C101.649 119.653 102.001 120.813 102.001 121.999C102.001 123.591 101.369 125.117 100.243 126.242C99.1182 127.367 97.5921 127.999 96.0009 127.999Z" fill="url(#paint0_linear_1658_36929)"/>
<g filter="url(#filter0_f_1658_36929)">
<path d="M186.912 38.6884L165.702 33.0288C165.193 32.8936 164.659 32.8943 164.151 33.0309C163.643 33.1675 163.18 33.4351 162.808 33.807C162.436 34.179 162.168 34.6421 162.032 35.15C161.895 35.6579 161.894 36.1928 162.029 36.7011L162.03 36.7018L167.689 57.9115C167.825 58.4206 168.092 58.885 168.464 59.2579C168.837 59.6308 169.3 59.8991 169.809 60.0358C170.318 60.1725 170.854 60.1728 171.363 60.0366C171.872 59.9004 172.336 59.6326 172.709 59.2601L188.261 43.7079C188.633 43.3353 188.901 42.8712 189.037 42.3622C189.173 41.8533 189.173 41.3174 189.036 40.8086C188.9 40.2998 188.631 39.8359 188.259 39.4637C187.886 39.0916 187.421 38.8241 186.912 38.6884ZM169.171 41.5859C168.983 41.3984 168.878 41.144 168.878 40.8788C168.878 40.6136 168.983 40.3592 169.171 40.1717C169.359 39.9842 169.613 39.8788 169.878 39.8788C170.143 39.8788 170.398 39.9842 170.585 40.1717L174.121 43.7072C174.308 43.8948 174.414 44.1491 174.414 44.4143C174.414 44.6795 174.308 44.9339 174.121 45.1214C173.933 45.309 173.679 45.4143 173.414 45.4143C173.148 45.4143 172.894 45.309 172.707 45.1214L169.171 41.5859ZM177.657 48.6567C177.447 48.8665 177.18 49.0093 176.889 49.0672C176.598 49.1251 176.296 49.0954 176.022 48.9819C175.748 48.8683 175.514 48.6761 175.349 48.4294C175.184 48.1827 175.096 47.8927 175.096 47.5961C175.096 47.2994 175.184 47.0094 175.349 46.7627C175.514 46.516 175.748 46.3238 176.022 46.2102C176.296 46.0967 176.598 46.067 176.889 46.1249C177.18 46.1828 177.447 46.3256 177.657 46.5354C177.938 46.8167 178.096 47.1982 178.096 47.5961C178.096 47.9939 177.938 48.3754 177.657 48.6567Z" fill="#15161A"/>
<path d="M186.912 38.6884L165.702 33.0288C165.193 32.8936 164.659 32.8943 164.151 33.0309C163.643 33.1675 163.18 33.4351 162.808 33.807C162.436 34.179 162.168 34.6421 162.032 35.15C161.895 35.6579 161.894 36.1928 162.029 36.7011L162.03 36.7018L167.689 57.9115C167.825 58.4206 168.092 58.885 168.464 59.2579C168.837 59.6308 169.3 59.8991 169.809 60.0358C170.318 60.1725 170.854 60.1728 171.363 60.0366C171.872 59.9004 172.336 59.6326 172.709 59.2601L188.261 43.7079C188.633 43.3353 188.901 42.8712 189.037 42.3622C189.173 41.8533 189.173 41.3174 189.036 40.8086C188.9 40.2998 188.631 39.8359 188.259 39.4637C187.886 39.0916 187.421 38.8241 186.912 38.6884ZM169.171 41.5859C168.983 41.3984 168.878 41.144 168.878 40.8788C168.878 40.6136 168.983 40.3592 169.171 40.1717C169.359 39.9842 169.613 39.8788 169.878 39.8788C170.143 39.8788 170.398 39.9842 170.585 40.1717L174.121 43.7072C174.308 43.8948 174.414 44.1491 174.414 44.4143C174.414 44.6795 174.308 44.9339 174.121 45.1214C173.933 45.309 173.679 45.4143 173.414 45.4143C173.148 45.4143 172.894 45.309 172.707 45.1214L169.171 41.5859ZM177.657 48.6567C177.447 48.8665 177.18 49.0093 176.889 49.0672C176.598 49.1251 176.296 49.0954 176.022 48.9819C175.748 48.8683 175.514 48.6761 175.349 48.4294C175.184 48.1827 175.096 47.8927 175.096 47.5961C175.096 47.2994 175.184 47.0094 175.349 46.7627C175.514 46.516 175.748 46.3238 176.022 46.2102C176.296 46.0967 176.598 46.067 176.889 46.1249C177.18 46.1828 177.447 46.3256 177.657 46.5354C177.938 46.8167 178.096 47.1982 178.096 47.5961C178.096 47.9939 177.938 48.3754 177.657 48.6567Z" fill="url(#paint1_linear_1658_36929)"/>
</g>
<g filter="url(#filter1_f_1658_36929)">
<path d="M21.1483 116.237L2.51934 104.623C2.0728 104.345 1.56108 104.19 1.03542 104.172C0.509764 104.154 -0.011364 104.274 -0.47576 104.521C-0.940156 104.768 -1.33151 105.133 -1.61063 105.579C-1.88975 106.024 -2.04682 106.536 -2.06612 107.061L-2.06566 107.062L-2.85513 129C-2.87418 129.526 -2.75422 130.048 -2.50733 130.514C-2.26043 130.979 -1.8953 131.372 -1.44868 131.651C-1.00206 131.931 -0.489709 132.087 0.0368286 132.106C0.563366 132.125 1.08551 132.004 1.55073 131.757L20.9704 121.431C21.4356 121.184 21.8274 120.818 22.1064 120.371C22.3854 119.925 22.5418 119.412 22.5599 118.885C22.5779 118.359 22.4569 117.837 22.2091 117.372C21.9613 116.907 21.5954 116.515 21.1483 116.237ZM3.33514 113.821C3.21063 113.587 3.18425 113.312 3.26179 113.059C3.33933 112.805 3.51445 112.593 3.74862 112.468C3.98279 112.344 4.25684 112.317 4.51046 112.395C4.76409 112.472 4.97653 112.648 5.10104 112.882L7.4484 117.296C7.57291 117.531 7.5993 117.805 7.52175 118.058C7.44421 118.312 7.26909 118.524 7.03492 118.649C6.80075 118.773 6.52671 118.8 6.27308 118.722C6.01945 118.645 5.80701 118.47 5.6825 118.235L3.33514 113.821ZM9.3831 123.064C9.12115 123.203 8.82378 123.261 8.52861 123.232C8.23343 123.202 7.95369 123.085 7.72477 122.897C7.49585 122.708 7.32803 122.456 7.24253 122.172C7.15703 121.887 7.15769 121.584 7.24443 121.301C7.33117 121.017 7.50009 120.765 7.72983 120.578C7.95957 120.39 8.23981 120.275 8.53512 120.246C8.83042 120.218 9.12753 120.277 9.38887 120.418C9.6502 120.558 9.86403 120.773 10.0033 121.035C10.1901 121.386 10.2296 121.797 10.1133 122.178C9.997 122.558 9.73434 122.877 9.3831 123.064Z" fill="#15161A"/>
<path d="M21.1483 116.237L2.51934 104.623C2.0728 104.345 1.56108 104.19 1.03542 104.172C0.509764 104.154 -0.011364 104.274 -0.47576 104.521C-0.940156 104.768 -1.33151 105.133 -1.61063 105.579C-1.88975 106.024 -2.04682 106.536 -2.06612 107.061L-2.06566 107.062L-2.85513 129C-2.87418 129.526 -2.75422 130.048 -2.50733 130.514C-2.26043 130.979 -1.8953 131.372 -1.44868 131.651C-1.00206 131.931 -0.489709 132.087 0.0368286 132.106C0.563366 132.125 1.08551 132.004 1.55073 131.757L20.9704 121.431C21.4356 121.184 21.8274 120.818 22.1064 120.371C22.3854 119.925 22.5418 119.412 22.5599 118.885C22.5779 118.359 22.4569 117.837 22.2091 117.372C21.9613 116.907 21.5954 116.515 21.1483 116.237ZM3.33514 113.821C3.21063 113.587 3.18425 113.312 3.26179 113.059C3.33933 112.805 3.51445 112.593 3.74862 112.468C3.98279 112.344 4.25684 112.317 4.51046 112.395C4.76409 112.472 4.97653 112.648 5.10104 112.882L7.4484 117.296C7.57291 117.531 7.5993 117.805 7.52175 118.058C7.44421 118.312 7.26909 118.524 7.03492 118.649C6.80075 118.773 6.52671 118.8 6.27308 118.722C6.01945 118.645 5.80701 118.47 5.6825 118.235L3.33514 113.821ZM9.3831 123.064C9.12115 123.203 8.82378 123.261 8.52861 123.232C8.23343 123.202 7.95369 123.085 7.72477 122.897C7.49585 122.708 7.32803 122.456 7.24253 122.172C7.15703 121.887 7.15769 121.584 7.24443 121.301C7.33117 121.017 7.50009 120.765 7.72983 120.578C7.95957 120.39 8.23981 120.275 8.53512 120.246C8.83042 120.218 9.12753 120.277 9.38887 120.418C9.6502 120.558 9.86403 120.773 10.0033 121.035C10.1901 121.386 10.2296 121.797 10.1133 122.178C9.997 122.558 9.73434 122.877 9.3831 123.064Z" fill="url(#paint2_linear_1658_36929)"/>
</g>
<g filter="url(#filter2_f_1658_36929)">
<path d="M54.3876 48.1187L45.0731 42.3119C44.8499 42.1729 44.594 42.095 44.3312 42.0861C44.0683 42.0772 43.8078 42.1374 43.5756 42.2609C43.3434 42.3844 43.1477 42.5667 43.0082 42.7896C42.8686 43.0125 42.7901 43.2681 42.7804 43.5309L42.7806 43.5313L42.3859 54.5001C42.3764 54.7633 42.4364 55.0245 42.5598 55.2572C42.6833 55.4899 42.8658 55.686 43.0891 55.8257C43.3124 55.9655 43.5686 56.044 43.8319 56.0533C44.0951 56.0626 44.3562 56.0023 44.5888 55.8787L54.2987 50.7159C54.5312 50.5922 54.7271 50.4094 54.8667 50.186C55.0062 49.9625 55.0844 49.7062 55.0934 49.443C55.1024 49.1797 55.0419 48.9187 54.918 48.6862C54.7941 48.4537 54.6112 48.258 54.3876 48.1187ZM45.481 46.9106C45.4188 46.7935 45.4056 46.6565 45.4444 46.5297C45.4831 46.4029 45.5707 46.2966 45.6878 46.2344C45.8049 46.1721 45.9419 46.1589 46.0687 46.1977C46.1955 46.2365 46.3017 46.324 46.364 46.4411L47.5377 48.6485C47.5999 48.7656 47.6131 48.9026 47.5743 49.0294C47.5356 49.1562 47.448 49.2624 47.3309 49.3247C47.2138 49.387 47.0768 49.4001 46.95 49.3614C46.8232 49.3226 46.717 49.235 46.6547 49.118L45.481 46.9106ZM48.505 51.532C48.374 51.6017 48.2254 51.6309 48.0778 51.6161C47.9302 51.6012 47.7903 51.5429 47.6758 51.4486C47.5614 51.3542 47.4775 51.228 47.4347 51.086C47.392 50.9439 47.3923 50.7924 47.4357 50.6506C47.479 50.5087 47.5635 50.3829 47.6784 50.289C47.7932 50.1952 47.9334 50.1375 48.081 50.1233C48.2287 50.1091 48.3772 50.139 48.5079 50.2092C48.6386 50.2794 48.7455 50.3868 48.8151 50.5177C48.9085 50.6934 48.9283 50.8989 48.8701 51.0891C48.812 51.2793 48.6806 51.4387 48.505 51.532Z" fill="#15161A"/>
<path d="M54.3876 48.1187L45.0731 42.3119C44.8499 42.1729 44.594 42.095 44.3312 42.0861C44.0683 42.0772 43.8078 42.1374 43.5756 42.2609C43.3434 42.3844 43.1477 42.5667 43.0082 42.7896C42.8686 43.0125 42.7901 43.2681 42.7804 43.5309L42.7806 43.5313L42.3859 54.5001C42.3764 54.7633 42.4364 55.0245 42.5598 55.2572C42.6833 55.4899 42.8658 55.686 43.0891 55.8257C43.3124 55.9655 43.5686 56.044 43.8319 56.0533C44.0951 56.0626 44.3562 56.0023 44.5888 55.8787L54.2987 50.7159C54.5312 50.5922 54.7271 50.4094 54.8667 50.186C55.0062 49.9625 55.0844 49.7062 55.0934 49.443C55.1024 49.1797 55.0419 48.9187 54.918 48.6862C54.7941 48.4537 54.6112 48.258 54.3876 48.1187ZM45.481 46.9106C45.4188 46.7935 45.4056 46.6565 45.4444 46.5297C45.4831 46.4029 45.5707 46.2966 45.6878 46.2344C45.8049 46.1721 45.9419 46.1589 46.0687 46.1977C46.1955 46.2365 46.3017 46.324 46.364 46.4411L47.5377 48.6485C47.5999 48.7656 47.6131 48.9026 47.5743 49.0294C47.5356 49.1562 47.448 49.2624 47.3309 49.3247C47.2138 49.387 47.0768 49.4001 46.95 49.3614C46.8232 49.3226 46.717 49.235 46.6547 49.118L45.481 46.9106ZM48.505 51.532C48.374 51.6017 48.2254 51.6309 48.0778 51.6161C47.9302 51.6012 47.7903 51.5429 47.6758 51.4486C47.5614 51.3542 47.4775 51.228 47.4347 51.086C47.392 50.9439 47.3923 50.7924 47.4357 50.6506C47.479 50.5087 47.5635 50.3829 47.6784 50.289C47.7932 50.1952 47.9334 50.1375 48.081 50.1233C48.2287 50.1091 48.3772 50.139 48.5079 50.2092C48.6386 50.2794 48.7455 50.3868 48.8151 50.5177C48.9085 50.6934 48.9283 50.8989 48.8701 51.0891C48.812 51.2793 48.6806 51.4387 48.505 51.532Z" fill="url(#paint3_linear_1658_36929)"/>
</g>
<g filter="url(#filter3_f_1658_36929)">
<path d="M129.685 162.578L120.091 167.909C119.861 168.037 119.669 168.223 119.534 168.449C119.399 168.674 119.325 168.931 119.32 169.194C119.316 169.457 119.38 169.717 119.508 169.947C119.635 170.177 119.82 170.37 120.046 170.505L120.046 170.505L129.448 176.168C129.674 176.304 129.931 176.378 130.195 176.383C130.458 176.388 130.718 176.324 130.949 176.196C131.179 176.068 131.372 175.882 131.508 175.657C131.643 175.431 131.717 175.173 131.722 174.91L131.914 163.915C131.918 163.651 131.854 163.391 131.726 163.161C131.598 162.931 131.412 162.738 131.186 162.602C130.96 162.467 130.702 162.393 130.439 162.389C130.176 162.385 129.916 162.45 129.685 162.578ZM124.311 169.782C124.178 169.78 124.052 169.725 123.96 169.629C123.868 169.534 123.817 169.406 123.82 169.273C123.822 169.141 123.877 169.014 123.972 168.922C124.068 168.83 124.196 168.78 124.328 168.782L126.828 168.826C126.961 168.828 127.087 168.883 127.179 168.978C127.271 169.074 127.321 169.202 127.319 169.334C127.317 169.467 127.262 169.593 127.167 169.685C127.071 169.777 126.943 169.828 126.81 169.826L124.311 169.782ZM129.819 169.378C129.816 169.526 129.77 169.67 129.685 169.792C129.601 169.914 129.482 170.008 129.344 170.062C129.206 170.117 129.055 170.129 128.91 170.097C128.765 170.066 128.633 169.992 128.53 169.885C128.427 169.779 128.357 169.644 128.331 169.498C128.305 169.352 128.322 169.201 128.381 169.065C128.44 168.929 128.539 168.814 128.663 168.734C128.788 168.653 128.934 168.612 129.082 168.615C129.281 168.618 129.47 168.7 129.609 168.844C129.747 168.987 129.822 169.179 129.819 169.378Z" fill="#15161A"/>
<path d="M129.685 162.578L120.091 167.909C119.861 168.037 119.669 168.223 119.534 168.449C119.399 168.674 119.325 168.931 119.32 169.194C119.316 169.457 119.38 169.717 119.508 169.947C119.635 170.177 119.82 170.37 120.046 170.505L120.046 170.505L129.448 176.168C129.674 176.304 129.931 176.378 130.195 176.383C130.458 176.388 130.718 176.324 130.949 176.196C131.179 176.068 131.372 175.882 131.508 175.657C131.643 175.431 131.717 175.173 131.722 174.91L131.914 163.915C131.918 163.651 131.854 163.391 131.726 163.161C131.598 162.931 131.412 162.738 131.186 162.602C130.96 162.467 130.702 162.393 130.439 162.389C130.176 162.385 129.916 162.45 129.685 162.578ZM124.311 169.782C124.178 169.78 124.052 169.725 123.96 169.629C123.868 169.534 123.817 169.406 123.82 169.273C123.822 169.141 123.877 169.014 123.972 168.922C124.068 168.83 124.196 168.78 124.328 168.782L126.828 168.826C126.961 168.828 127.087 168.883 127.179 168.978C127.271 169.074 127.321 169.202 127.319 169.334C127.317 169.467 127.262 169.593 127.167 169.685C127.071 169.777 126.943 169.828 126.81 169.826L124.311 169.782ZM129.819 169.378C129.816 169.526 129.77 169.67 129.685 169.792C129.601 169.914 129.482 170.008 129.344 170.062C129.206 170.117 129.055 170.129 128.91 170.097C128.765 170.066 128.633 169.992 128.53 169.885C128.427 169.779 128.357 169.644 128.331 169.498C128.305 169.352 128.322 169.201 128.381 169.065C128.44 168.929 128.539 168.814 128.663 168.734C128.788 168.653 128.934 168.612 129.082 168.615C129.281 168.618 129.47 168.7 129.609 168.844C129.747 168.987 129.822 169.179 129.819 169.378Z" fill="url(#paint4_linear_1658_36929)"/>
</g>
</g>
<defs>
<filter id="filter0_f_1658_36929" x="145.373" y="16.3726" width="53.2549" height="53.2549" filterUnits="userSpaceOnUse" color-interpolation-filters="sRGB">
<feFlood flood-opacity="0" result="BackgroundImageFix"/>
<feBlend mode="normal" in="SourceGraphic" in2="BackgroundImageFix" result="shape"/>
<feGaussianBlur stdDeviation="2" result="effect1_foregroundBlur_1658_36929"/>
</filter>
<filter id="filter1_f_1658_36929" x="-20.0112" y="90.3613" width="51.2773" height="51.2773" filterUnits="userSpaceOnUse" color-interpolation-filters="sRGB">
<feFlood flood-opacity="0" result="BackgroundImageFix"/>
<feBlend mode="normal" in="SourceGraphic" in2="BackgroundImageFix" result="shape"/>
<feGaussianBlur stdDeviation="2" result="effect1_foregroundBlur_1658_36929"/>
</filter>
<filter id="filter2_f_1658_36929" x="33.8081" y="35.1807" width="25.6387" height="25.6387" filterUnits="userSpaceOnUse" color-interpolation-filters="sRGB">
<feFlood flood-opacity="0" result="BackgroundImageFix"/>
<feBlend mode="normal" in="SourceGraphic" in2="BackgroundImageFix" result="shape"/>
<feGaussianBlur stdDeviation="0.999998" result="effect1_foregroundBlur_1658_36929"/>
</filter>
<filter id="filter3_f_1658_36929" x="115.681" y="159.169" width="20.2768" height="20.2768" filterUnits="userSpaceOnUse" color-interpolation-filters="sRGB">
<feFlood flood-opacity="0" result="BackgroundImageFix"/>
<feBlend mode="normal" in="SourceGraphic" in2="BackgroundImageFix" result="shape"/>
<feGaussianBlur stdDeviation="0.999998" result="effect1_foregroundBlur_1658_36929"/>
</filter>
<linearGradient id="paint0_linear_1658_36929" x1="79.6163" y1="56.2879" x2="149.794" y2="137.821" gradientUnits="userSpaceOnUse">
<stop stop-color="#E1E5EF"/>
<stop offset="1" stop-color="#B8BDC9"/>
</linearGradient>
<linearGradient id="paint1_linear_1658_36929" x1="162.084" y1="38.8762" x2="188.903" y2="40.8835" gradientUnits="userSpaceOnUse">
<stop stop-color="#E1E5EF"/>
<stop offset="1" stop-color="#B8BDC9"/>
</linearGradient>
<linearGradient id="paint2_linear_1658_36929" x1="-2.65021" y1="109.157" x2="22.41" y2="118.918" gradientUnits="userSpaceOnUse">
<stop stop-color="#E1E5EF"/>
<stop offset="1" stop-color="#B8BDC9"/>
</linearGradient>
<linearGradient id="paint3_linear_1658_36929" x1="42.4884" y1="44.5789" x2="55.0184" y2="49.4592" gradientUnits="userSpaceOnUse">
<stop stop-color="#E1E5EF"/>
<stop offset="1" stop-color="#B8BDC9"/>
</linearGradient>
<linearGradient id="paint4_linear_1658_36929" x1="120.821" y1="171.269" x2="131.164" y2="162.676" gradientUnits="userSpaceOnUse">
<stop stop-color="#E1E5EF"/>
<stop offset="1" stop-color="#B8BDC9"/>
</linearGradient>
</defs>
</svg>
